<?xml version="1.0" standalone="no"?>
<!DOCTYPE svg PUBLIC "-//W3C//DTD SVG 20010904//EN"
 "http://www.w3.org/TR/2001/REC-SVG-20010904/DTD/svg10.dtd">
<svg version="1.0" xmlns="http://www.w3.org/2000/svg"
 width="300.000000pt" height="321.000000pt" viewBox="0 0 300.000000 321.000000"
 preserveAspectRatio="xMidYMid meet">
<metadata>
Created by potrace 1.10, written by Peter Selinger 2001-2011
</metadata>
<g transform="translate(0.000000,321.000000) scale(0.100000,-0.100000)"
fill="#303942" stroke="none">
<path d="M1408 2849 c-49 -28 -88 -55 -88 -60 0 -18 134 -209 141 -201 3 4 34
65 67 136 l61 130 -28 17 c-52 31 -63 30 -153 -22z"/>
<path d="M1553 2690 c-50 -106 -70 -139 -81 -135 -9 3 -19 0 -24 -7 -7 -10
-10 -10 -17 2 -5 8 -42 61 -81 118 -66 96 -72 102 -93 91 -23 -13 -796 -462
-835 -486 -20 -13 -23 -21 -20 -74 l3 -60 265 -324 c146 -178 269 -323 273
-322 8 2 44 76 252 522 51 110 122 261 158 337 36 75 68 145 72 157 7 23 20
27 31 10 5 -8 10 -6 16 5 10 17 47 -32 260 -346 44 -65 83 -120 88 -123 8 -5
285 493 278 500 -7 7 -469 275 -474 275 -3 0 -35 -63 -71 -140z"/>
<path d="M2114 2498 c-9 -18 -73 -136 -141 -261 -94 -170 -128 -225 -137 -218
-9 7 -16 7 -23 0 -7 -7 -61 64 -179 236 l-169 247 -46 -98 c-26 -55 -118 -250
-204 -434 -87 -184 -176 -373 -198 -420 -22 -47 -40 -90 -40 -96 0 -12 302
-384 312 -384 3 0 116 203 251 451 135 248 251 459 258 468 10 12 15 13 19 3
4 -10 8 -10 19 -1 8 7 16 10 18 8 3 -4 213 -309 430 -626 65 -95 120 -173 121
-173 2 0 46 79 99 176 l96 175 0 357 0 357 -229 133 c-126 72 -231 132 -234
132 -4 0 -14 -15 -23 -32z"/>
<path d="M403 1530 l2 -555 118 -68 c65 -38 120 -67 122 -65 1 1 65 136 140
298 75 162 139 297 141 299 2 2 10 -1 18 -8 17 -14 29 8 16 29 -7 11 -12 11
-23 2 -12 -10 -56 38 -258 285 -134 164 -252 306 -261 318 -17 19 -17 -9 -15
-535z"/>
<path d="M1754 1837 c-39 -73 -153 -283 -254 -466 -153 -282 -181 -338 -171
-353 16 -25 377 -467 410 -501 l27 -28 183 107 c208 121 180 91 329 364 76
140 105 185 119 183 10 -1 21 3 24 9 5 8 80 -90 144 -190 1 -1 10 0 19 4 14 5
16 34 16 257 l0 252 -81 -150 c-45 -83 -83 -152 -86 -154 -2 -3 -9 1 -15 7 -8
8 -14 8 -22 -4 -10 -13 -16 -9 -37 23 -62 94 -513 749 -523 760 -8 9 -28 -20
-82 -120z"/>
<path d="M941 1389 c-5 -13 -66 -145 -135 -292 -69 -147 -126 -271 -126 -275
0 -7 334 -204 355 -210 5 -1 57 86 115 194 58 107 108 200 112 206 5 9 10 9
21 0 12 -10 16 -9 21 4 9 23 -12 44 -24 24 -5 -8 -11 -12 -13 -10 -2 3 -68 84
-147 180 -184 226 -167 209 -179 179z"/>
<path d="M2307 939 c-54 -100 -97 -183 -95 -185 2 -2 58 28 123 67 66 39 137
80 158 90 20 11 37 24 37 29 0 11 -113 179 -120 179 -3 0 -49 -81 -103 -180z"/>
<path d="M1186 795 c-59 -108 -106 -201 -104 -206 6 -19 413 -249 430 -243 31
10 208 116 208 125 0 9 -353 444 -400 492 l-27 28 -107 -196z"/>
</g>
</svg>
